<svg xmlns="http://www.w3.org/2000/svg" width="24" height="22.8" viewBox="0 0 24 22.8">
  <path id="work_24dp_E3E3E3_FILL0_wght400_GRAD0_opsz24" d="M82.4-857.2a2.311,2.311,0,0,1-1.695-.7A2.311,2.311,0,0,1,80-859.6v-13.2a2.311,2.311,0,0,1,.705-1.695A2.311,2.311,0,0,1,82.4-875.2h4.8v-2.4a2.311,2.311,0,0,1,.705-1.7A2.311,2.311,0,0,1,89.6-880h4.8a2.311,2.311,0,0,1,1.695.705,2.311,2.311,0,0,1,.705,1.7v2.4h4.8a2.311,2.311,0,0,1,1.695.705,2.311,2.311,0,0,1,.7,1.695v13.2a2.311,2.311,0,0,1-.7,1.7,2.311,2.311,0,0,1-1.695.7Zm0-2.4h19.2v-13.2H82.4Zm7.2-15.6h4.8v-2.4H89.6Zm-7.2,15.6v0Z" transform="translate(-80 880)" fill="currentColor" opacity="0.7"/>
</svg>
