<svg xmlns="http://www.w3.org/2000/svg" width="24" height="24" viewBox="0 0 24 24">
  <path id="build_circle_24dp_E3E3E3_FILL0_wght400_GRAD0_opsz24" d="M96.2-862.12l1.68-1.68a.576.576,0,0,0,.18-.42.576.576,0,0,0-.18-.42l-4.08-4.11a4.047,4.047,0,0,0,.18-.66,4.22,4.22,0,0,0,.06-.75,3.987,3.987,0,0,0-1.215-2.925A3.987,3.987,0,0,0,89.9-874.3a3.97,3.97,0,0,0-1.02.135,5.159,5.159,0,0,0-.99.375l2.82,2.82-1.68,1.68-2.82-2.82a5.164,5.164,0,0,0-.375.99,3.971,3.971,0,0,0-.135,1.02,3.987,3.987,0,0,0,1.215,2.925,3.987,3.987,0,0,0,2.925,1.215,4.285,4.285,0,0,0,.735-.06,3.95,3.95,0,0,0,.675-.18l4.11,4.08a.576.576,0,0,0,.42.18A.576.576,0,0,0,96.2-862.12ZM92-856a11.685,11.685,0,0,1-4.68-.945,12.118,12.118,0,0,1-3.81-2.565,12.118,12.118,0,0,1-2.565-3.81A11.685,11.685,0,0,1,80-868a11.685,11.685,0,0,1,.945-4.68,12.118,12.118,0,0,1,2.565-3.81,12.118,12.118,0,0,1,3.81-2.565A11.685,11.685,0,0,1,92-880a11.685,11.685,0,0,1,4.68.945,12.118,12.118,0,0,1,3.81,2.565,12.118,12.118,0,0,1,2.565,3.81A11.685,11.685,0,0,1,104-868a11.685,11.685,0,0,1-.945,4.68,12.117,12.117,0,0,1-2.565,3.81,12.118,12.118,0,0,1-3.81,2.565A11.685,11.685,0,0,1,92-856Zm0-2.4a9.265,9.265,0,0,0,6.81-2.79A9.265,9.265,0,0,0,101.6-868a9.265,9.265,0,0,0-2.79-6.81A9.265,9.265,0,0,0,92-877.6a9.265,9.265,0,0,0-6.81,2.79A9.265,9.265,0,0,0,82.4-868a9.265,9.265,0,0,0,2.79,6.81A9.265,9.265,0,0,0,92-858.4ZM92-868Z" transform="translate(-80 880)" fill="currentColor" opacity="0.7"/>
</svg>
