<svg xmlns="http://www.w3.org/2000/svg" width="17.4" height="24" viewBox="0 0 17.4 24">
  <path id="emoji_objects_24dp_E3E3E3_FILL0_wght400_GRAD0_opsz24" d="M198.7-856a2.7,2.7,0,0,1-1.41-.375,2.727,2.727,0,0,1-.99-1.005,2.311,2.311,0,0,1-1.695-.705,2.311,2.311,0,0,1-.705-1.7v-4.26a8.692,8.692,0,0,1-2.835-3.09A8.456,8.456,0,0,1,190-871.3a8.392,8.392,0,0,1,2.535-6.165A8.392,8.392,0,0,1,198.7-880a8.392,8.392,0,0,1,6.165,2.535A8.392,8.392,0,0,1,207.4-871.3a8.406,8.406,0,0,1-1.065,4.2,8.769,8.769,0,0,1-2.835,3.06v4.26a2.311,2.311,0,0,1-.705,1.7,2.311,2.311,0,0,1-1.7.705,2.726,2.726,0,0,1-.99,1.005A2.7,2.7,0,0,1,198.7-856Zm-2.4-3.78h4.8v-1.08h-4.8Zm0-2.28h4.8v-1.14h-4.8Zm-.24-3.54h1.74v-3.24l-2.64-2.64,1.26-1.26,2.28,2.28,2.28-2.28,1.26,1.26-2.64,2.64v3.24h1.74a6.57,6.57,0,0,0,2.64-2.3,5.959,5.959,0,0,0,1.02-3.4,6.081,6.081,0,0,0-1.83-4.47,6.081,6.081,0,0,0-4.47-1.83,6.081,6.081,0,0,0-4.47,1.83,6.081,6.081,0,0,0-1.83,4.47,5.959,5.959,0,0,0,1.02,3.4A6.57,6.57,0,0,0,196.06-865.6ZM198.7-870.46ZM198.7-871.6Z" transform="translate(-190 880)" fill="currentColor" opacity="0.7"/>
</svg>
