<svg xmlns="http://www.w3.org/2000/svg" width="24" height="19.68" viewBox="0 0 24 19.68">
  <path id="how_to_reg_24dp_E3E3E3_FILL0_wght400_GRAD0_opsz24" d="M80-780.8v-3.36a3.618,3.618,0,0,1,.51-1.86,3.326,3.326,0,0,1,1.41-1.32,18.784,18.784,0,0,1,3.45-1.32,15.591,15.591,0,0,1,4.23-.54,16.759,16.759,0,0,1,1.755.09,14.823,14.823,0,0,1,1.665.27l-2.1,2.1a3.6,3.6,0,0,0-.645-.06H89.6a13.264,13.264,0,0,0-3.825.51A14.237,14.237,0,0,0,83-785.18a1.168,1.168,0,0,0-.435.42,1.128,1.128,0,0,0-.165.6v.96h7.5l2.4,2.4Zm16.26.48-4.14-4.14,1.68-1.68,2.46,2.46,6.06-6.06,1.68,1.68ZM89.6-790.4a4.622,4.622,0,0,1-3.39-1.41,4.622,4.622,0,0,1-1.41-3.39,4.622,4.622,0,0,1,1.41-3.39A4.622,4.622,0,0,1,89.6-800a4.622,4.622,0,0,1,3.39,1.41,4.622,4.622,0,0,1,1.41,3.39,4.622,4.622,0,0,1-1.41,3.39A4.622,4.622,0,0,1,89.6-790.4ZM89.9-783.2Zm-.3-9.6a2.311,2.311,0,0,0,1.695-.705A2.311,2.311,0,0,0,92-795.2a2.311,2.311,0,0,0-.705-1.7A2.311,2.311,0,0,0,89.6-797.6a2.311,2.311,0,0,0-1.695.705,2.311,2.311,0,0,0-.705,1.7,2.311,2.311,0,0,0,.705,1.695A2.311,2.311,0,0,0,89.6-792.8ZM89.6-795.2Z" transform="translate(-80 800)" fill="currentColor" opacity="0.7"/>
</svg>
